<?xml version="1.0" standalone="no"?>
<!DOCTYPE svg PUBLIC "-//W3C//DTD SVG 20010904//EN"
 "http://www.w3.org/TR/2001/REC-SVG-20010904/DTD/svg10.dtd">
<svg version="1.0" xmlns="http://www.w3.org/2000/svg"
 width="882.000000pt" height="871.000000pt" viewBox="0 0 882.000000 871.000000"
 preserveAspectRatio="xMidYMid meet">

<g transform="translate(0.000000,871.000000) scale(0.100000,-0.100000)"
fill="#000000" stroke="none">
<path d="M3550 7650 l0 -200 25 0 25 0 0 200 0 200 -25 0 -25 0 0 -200z"/>
<path d="M3804 7840 c-41 -13 -101 -70 -119 -114 -47 -111 23 -245 141 -275
51 -13 114 -2 153 27 23 17 26 27 29 96 3 76 3 76 -23 76 -24 0 -25 -2 -25
-60 0 -57 -1 -60 -32 -76 -88 -45 -198 30 -198 135 0 111 113 174 214 120 39
-21 39 -21 59 -1 19 20 19 20 -22 48 -46 30 -122 41 -177 24z"/>
<path d="M4080 7650 l0 -200 100 0 100 0 0 30 0 30 -70 0 -70 0 0 170 0 170
-30 0 -30 0 0 -200z"/>
<path d="M4330 7650 l0 -200 110 0 110 0 0 30 0 30 -80 0 -80 0 0 55 0 55 81
0 80 0 -3 28 c-3 27 -4 27 -80 30 l-78 3 0 54 0 55 80 0 80 0 0 30 0 30 -110
0 -110 0 0 -200z"/>
<path d="M4649 7822 c-61 -54 -35 -132 58 -173 78 -34 94 -103 31 -138 -35
-20 -75 -2 -90 39 -11 32 -19 36 -48 20 -16 -9 -18 -15 -9 -38 25 -65 93 -102
153 -82 65 21 103 89 85 153 -11 40 -38 67 -98 99 -54 28 -70 50 -52 72 18 21
47 20 63 -3 10 -14 19 -16 36 -10 30 11 28 32 -9 63 -40 34 -80 34 -120 -2z"/>
<path d="M4880 7650 l0 -200 30 0 30 0 0 200 0 200 -30 0 -30 0 0 -200z"/>
<path d="M5122 7823 c-5 -15 -37 -104 -71 -196 -34 -93 -61 -170 -61 -173 0
-2 13 -4 29 -4 26 0 30 6 53 68 l25 67 49 0 49 0 25 -67 c23 -64 27 -68 56
-68 l31 0 -72 198 c-74 202 -93 231 -113 175z m48 -170 c0 -7 -12 -13 -26 -13
-20 0 -25 4 -20 16 3 9 9 28 13 42 l6 27 13 -30 c7 -16 13 -36 14 -42z"/>
<path d="M3380 7273 c0 -5 0 -786 0 -1738 0 -951 0 -2341 0 -3087 l0 -1358
100 0 100 0 0 2990 0 2990 830 0 830 0 0 -1522 c1 -838 0 -2184 0 -2991 l-1
-1468 103 3 103 3 2 3093 3 3092 -1035 0 c-569 0 -1035 -3 -1035 -7z"/>
<path d="M4250 6578 l0 -258 50 0 50 0 0 204 0 204 65 4 65 3 0 -282 0 -283
-380 0 -380 0 0 -175 0 -175 223 0 222 0 0 50 0 50 -172 0 -173 0 0 70 0 69
330 3 330 3 0 -712 0 -713 -65 0 -65 0 0 175 0 175 -55 0 -55 0 0 -225 c0
-143 4 -225 10 -225 6 0 82 -1 170 -1 l160 0 0 760 0 761 210 0 210 0 0 -70 0
-70 -175 0 -175 0 0 -50 0 -50 225 0 225 0 0 175 0 175 -255 0 c-197 0 -255 3
-256 13 0 6 -1 156 -2 331 l-2 319 -167 1 -168 1 0 -257z"/>
</g>
</svg>
